<svg xmlns="http://www.w3.org/2000/svg" viewBox="0 0 107.15625 18.25625"><g class="currentLayer"><path d="M.26458.26458L0 9.26042v8.99583h1.85208V12.7l1.85209-1.85208 1.85208-1.85209 3.43958 4.49792c3.175 4.49792 3.43959 4.49792 4.23334 4.7625h1.05833l-3.70417-4.7625-3.70416-5.29167a385.23333 385.23333 0 006.08541-7.14375L13.75833 0h-.79375c-.79375 0-1.32291.26458-6.08541 5.29167l-4.7625 5.29166-.26459-5.29166V0h-.79375zm16.93334 5.55625l2.64583 6.61459 2.38125 5.55625.79375.26458c1.05833 0 1.05833 0 1.5875-1.5875l2.64583-6.61458 2.11667-5.02709-.79375-.26458c-.79375 0-.79375 0-3.175 5.82083-1.85208 5.29167-2.38125 6.08542-2.64583 5.55625l-2.11667-6.08541-2.11667-5.29167h-1.85208zm40.74583 5.55625v6.87917h1.5875v-4.23333c0-4.7625.26458-5.29167 1.5875-6.35l2.11667-1.05834c1.32291-.26458 1.32291-.52916 1.32291-1.05833 0-.79375 0-.79375-1.05833-.79375-1.32292.26458-2.11667.79375-3.175 2.11667l-.79375.79375V6.35c0-1.5875 0-1.5875-.79375-1.5875h-.79375zm11.37708-1.32291c.26459 4.7625.26459 5.55625.79375 6.35.79375 1.5875 1.5875 1.85208 3.70417 1.85208s3.175-.26458 4.49792-1.85208l1.05833-1.05834v1.05834c0 1.32291.26458 1.85208 1.32292 1.85208.79375 0 .79375 0 .79375-.52917l-.26459-1.05833c-.52916-.26458-.52916-1.32292-.52916-6.08542V4.7625h-1.5875v4.23333c0 4.23334 0 4.23334-.52917 5.55625-1.5875 2.38125-4.7625 3.175-6.35 1.5875-1.05833-.79375-1.32292-2.38125-1.32292-7.40833V4.7625h-1.5875zm17.99167 1.32291v6.87917H88.9V14.2875c0-3.43958 0-4.23333.52917-5.29167 1.05833-2.11666 3.43958-3.175 5.29166-2.64583 1.32292.79375 1.5875 1.5875 1.5875 7.14375v4.7625h1.85209v-4.23333c0-4.23334 0-4.49792.79375-5.55625 1.5875-2.91042 5.55625-2.91042 6.35 0l.26458 5.29166v4.49792h1.5875v-5.02708l-.26458-5.82084c-.52917-1.5875-1.5875-2.38125-3.175-2.64583-2.11667 0-3.175.26458-4.49792 1.85208L97.89583 7.9375l-.26458-1.05833c-1.32292-2.91042-5.55625-2.91042-7.9375 0L88.9 7.67292V6.35c0-1.5875 0-1.5875-.79375-1.5875h-.79375z"/><path fill="#027be3" stroke="#027be3" stroke-width=".26458" d="M40.48125 15.61042a1.7198 1.7198 0 113.43958 0 1.7198 1.7198 0 01-3.43958 0z"/><path stroke="#027be3" stroke-width="1.3229" d="M33.3375 14.55208l9.26042-8.99583m-.79375 0L50.8 14.81667"/><g><path fill="#027be3" stroke="#027be3" stroke-width=".26458" d="M40.48125 15.61042a1.7198 1.7198 0 113.43958 0 1.7198 1.7198 0 01-3.43958 0z"/><path stroke="#027be3" stroke-width="1.3229" d="M33.3375 14.55208l9.26042-8.99583m-.79375 0L50.8 14.81667"/></g></g></svg>