<svg xmlns="http://www.w3.org/2000/svg" width="1240" height="1240"><path d="M310.797 505.59C141.233 670.365 2.074 805.78 1.554 806.513c-.703.99 6.849 9.323 29.402 32.442C47.648 856.066 61.618 869.938 62 869.783c.383-.156 125.911-122.008 278.952-270.783 153.04-148.775 278.618-270.5 279.062-270.5.445 0 126.021 121.725 279.06 270.5 153.038 148.775 278.56 270.627 278.937 270.783.376.155 14.341-13.717 31.033-30.828 22.622-23.19 30.107-31.452 29.402-32.451C1236.518 803.77 620.903 206 620.015 206c-.507 0-139.655 134.816-309.218 299.59M608.5 789.626c-1.1.216-4.475.877-7.5 1.467-57.511 11.225-98.974 62.125-98.996 121.526-.022 59.742 43.4 110.959 102.996 121.488 11.357 2.006 33.533 1.559 45-.908 49.565-10.663 86.071-47.473 96.704-97.507 2.439-11.478 2.382-36.096-.11-47.692-5.17-24.054-16.693-45.714-33.119-62.255-10.36-10.432-18.913-16.717-31.475-23.129-19.652-10.03-35.17-13.682-57.36-13.5-7.777.064-15.04.293-16.14.51" fill="undefined" fill-rule="evenodd"/></svg>