<svg class="logo" xmlns="http://www.w3.org/2000/svg" viewBox="0 0 48.022 12.538"><g fill-rule="evenodd"><path d="M0 0h48.022v12.538H0z" fill="#00587f"></path><path d="M10.447 3.999l-.673.076V8.47l.673-.076v-2.21h.038l1.772 2.33.648-.253-1.67-2.146 1.593-1.912-.628-.273-1.715 2.14h-.038zm2.235.083l2 4.559 1.97-4.56-.668-.114-1.295 3.105-1.314-3.098zM17 7.053h1.734l.711 1.48.673-.14-2.235-4.496L15.635 8.4l.648.133zm.87-1.822l.597 1.238h-1.2zm2.566-1.156V8.47l.673-.076V6.298l1.606 2.216.655-.241-1.277-1.702c.584-.146.946-.623.946-1.188 0-1.308-1.384-1.308-1.74-1.308zm.673.597h.387c.584 0 .864.337.864.737 0 .438-.387.749-.883.749h-.368zm2.4 1.581c0 1.334 1.124 2.28 2.33 2.28 1.207 0 2.331-.946 2.331-2.28 0-1.416-1.213-2.28-2.33-2.28-1.118 0-2.33.864-2.33 2.28zm.673.007c0-.858.654-1.664 1.658-1.664.997 0 1.657.806 1.657 1.664 0 .901-.73 1.65-1.657 1.65-.934 0-1.658-.749-1.658-1.65zm4.331-.007c0 1.334 1.124 2.28 2.33 2.28 1.207 0 2.331-.946 2.331-2.28 0-1.416-1.213-2.28-2.33-2.28-1.118 0-2.33.864-2.33 2.28zm.673.007c0-.858.654-1.664 1.658-1.664.997 0 1.657.806 1.657 1.664 0 .901-.73 1.65-1.657 1.65-.934 0-1.658-.749-1.658-1.65zm6.63 2.33l1.289-2.775.495 2.724.648-.108-.89-4.514-1.53 3.308L34.26 3.91l-.883 4.528.654.101.477-2.724zM7.493.56h33.036v.15H7.493zM7.493 11.81h33.036v-.15H7.493zM9.724 1.386h28.573v.15H9.724zM9.724 10.986h28.573v-.15H9.724zM10.839 2.136h26.344v.15H10.84zM10.839 10.236h26.344v-.15H10.84z" fill="#fff"></path></g></svg>