<svg xmlns="http://www.w3.org/2000/svg" width="195" height="29" enable-background="new 0 0 195.239 29.229" version="1"><g fill-rule="evenodd" clip-rule="evenodd"><path d="M35 11l-4 16h6l4-16zM27 11l-4 16h6l4-16zM55 27l4-16h6l-2 9 12-9h6l-1 1-19 15zM70 27l2-6 7-6-3 12zM82 11l-4 16h6l5-16zM150 11l-5 16h6l5-16zM162 27l-7-8 7-8h8l-7 8 7 8zM110 27l3-13h-11v-3h25l-1 3h-7l-3 13z"/><path d="M93 27l1-5h-7l2-5h7l1-6h7l-5 16zM171 19c0-3 3-7 7-8h17l-1 5h-15c-2 1-2 4-1 5h14l-1 6h-18c-2-2-3-5-2-8zM118 27l14-16h7l5 16h-7l-1-3h-6l3-4h1a1 1 0 0 0 0-3h-1l-8 10h-7zM49 20h-8l1-3h9a1 1 0 0 0 0-3h-9l1-3h11l2 1v1a5 5 0 0 1 0 1v1l-1 2v1l-1 1h-1v1h-2-2zM8 27l4-16h13l-1 5h-7l-3 11z"/></g><defs><filter id="a" width="5" height="14" x="9" y="1" filterUnits="userSpaceOnUse"><feColorMatrix values="1 0 0 0 0 0 1 0 0 0 0 0 1 0 0 0 0 0 1 0"/></filter></defs><mask id="c" width="5" height="14" x="9" y="1" maskUnits="userSpaceOnUse"><g filter="url(#a)"><linearGradient id="b" x1="15" x2="8" y1="4" y2="11" gradientUnits="userSpaceOnUse"><stop offset="0" stop-color="#fff"/><stop offset="1"/></linearGradient><path fill="url(#b)" fill-rule="evenodd" d="M11 15c-1-3-4-9 0-14 5 5 2 11 0 14z" clip-rule="evenodd"/></g></mask><path fill="#FFEA00" fill-rule="evenodd" d="M11 15c-1-3-4-9 0-14 5 5 2 11 0 14z" clip-rule="evenodd" mask="url(#c)"/><defs><filter id="d" width="7" height="12" x="13" y="0" filterUnits="userSpaceOnUse"><feColorMatrix values="1 0 0 0 0 0 1 0 0 0 0 0 1 0 0 0 0 0 1 0"/></filter></defs><mask id="f" width="7" height="12" x="13" y="0" maskUnits="userSpaceOnUse"><g filter="url(#d)"><linearGradient id="e" x1="21" x2="11" y1="1" y2="11" gradientUnits="userSpaceOnUse"><stop offset="0" stop-color="#fff"/><stop offset="1"/></linearGradient><path fill="url(#e)" fill-rule="evenodd" d="M13 12c0-3 0-9 6-12 2 7-3 10-6 12z" clip-rule="evenodd"/></g></mask><path fill="#FF8200" fill-rule="evenodd" d="M13 12c0-3 0-9 6-12 2 7-3 10-6 12z" clip-rule="evenodd" mask="url(#f)"/><defs><filter id="g" width="11" height="8" x="15" y="3" filterUnits="userSpaceOnUse"><feColorMatrix values="1 0 0 0 0 0 1 0 0 0 0 0 1 0 0 0 0 0 1 0"/></filter></defs><mask id="i" width="11" height="8" x="15" y="3" maskUnits="userSpaceOnUse"><g filter="url(#g)"><linearGradient id="h" x1="25" x2="16" y1="2" y2="12" gradientUnits="userSpaceOnUse"><stop offset="0" stop-color="#fff"/><stop offset="1"/></linearGradient><path fill="url(#h)" fill-rule="evenodd" d="M15 11c1-3 4-9 11-8-2 6-8 7-11 8z" clip-rule="evenodd"/></g></mask><path fill="red" fill-rule="evenodd" d="M15 11c1-3 4-9 11-8-2 6-8 7-11 8z" clip-rule="evenodd" mask="url(#i)"/><defs><filter id="j" width="6" height="13" x="6" y="5" filterUnits="userSpaceOnUse"><feColorMatrix values="1 0 0 0 0 0 1 0 0 0 0 0 1 0 0 0 0 0 1 0"/></filter></defs><mask id="l" width="6" height="13" x="6" y="5" maskUnits="userSpaceOnUse"><g filter="url(#j)"><linearGradient id="k" x1="11" x2="6" y1="8" y2="16" gradientUnits="userSpaceOnUse"><stop offset="0" stop-color="#fff"/><stop offset="1"/></linearGradient><path fill="url(#k)" fill-rule="evenodd" d="M11 18c-3-2-7-6-5-13 6 4 5 10 5 13z" clip-rule="evenodd"/></g></mask><path fill="#62BE00" fill-rule="evenodd" d="M11 18c-3-2-7-6-5-13 6 4 5 10 5 13z" clip-rule="evenodd" mask="url(#l)"/><defs><filter id="m" width="8" height="11" x="3" y="12" filterUnits="userSpaceOnUse"><feColorMatrix values="1 0 0 0 0 0 1 0 0 0 0 0 1 0 0 0 0 0 1 0"/></filter></defs><mask id="o" width="8" height="11" x="3" y="12" maskUnits="userSpaceOnUse"><g filter="url(#m)"><linearGradient id="n" x1="8" x2="5" y1="14" y2="20" gradientUnits="userSpaceOnUse"><stop offset="0" stop-color="#fff"/><stop offset="1"/></linearGradient><path fill="url(#n)" fill-rule="evenodd" d="M11 23c-3-2-9-5-8-11 6 2 7 7 8 11z" clip-rule="evenodd"/></g></mask><path fill="#00D5F9" fill-rule="evenodd" d="M11 23c-3-2-9-5-8-11 6 2 7 7 8 11z" clip-rule="evenodd" mask="url(#o)"/><defs><filter id="p" width="12" height="7" x="0" y="18" filterUnits="userSpaceOnUse"><feColorMatrix values="1 0 0 0 0 0 1 0 0 0 0 0 1 0 0 0 0 0 1 0"/></filter></defs><mask id="r" width="12" height="7" x="0" y="18" maskUnits="userSpaceOnUse"><g filter="url(#p)"><linearGradient id="q" x1="8" x2="4" y1="20" y2="24" gradientUnits="userSpaceOnUse"><stop offset="0" stop-color="#fff"/><stop offset="1"/></linearGradient><path fill="url(#q)" fill-rule="evenodd" d="M12 25c-3 0-9 0-12-7 7-1 10 4 12 7z" clip-rule="evenodd"/></g></mask><path fill="#0092E7" fill-rule="evenodd" d="M12 25c-3 0-9 0-12-7 7-1 10 4 12 7z" clip-rule="evenodd" mask="url(#r)"/><defs><filter id="s" width="14" height="5" x="1" y="25" filterUnits="userSpaceOnUse"><feColorMatrix values="1 0 0 0 0 0 1 0 0 0 0 0 1 0 0 0 0 0 1 0"/></filter></defs><mask id="u" width="14" height="5" x="1" y="25" maskUnits="userSpaceOnUse"><g filter="url(#s)"><linearGradient id="t" x1="11" x2="4" y1="24" y2="30" gradientUnits="userSpaceOnUse"><stop offset="0" stop-color="#fff"/><stop offset="1"/></linearGradient><path fill="url(#t)" fill-rule="evenodd" d="M14 27c-3 2-8 4-13 0 5-4 11-2 13 0z" clip-rule="evenodd"/></g></mask><path fill="#C50059" fill-rule="evenodd" d="M14 27c-3 2-8 4-13 0 5-4 11-2 13 0z" clip-rule="evenodd" mask="url(#u)"/><path fill="#62BE00" fill-rule="evenodd" d="M14 11h1c-9 8-4 15 3 18h-1c-6-3-11-10-3-18z" clip-rule="evenodd"/></svg>
